# xmcd
#
# Track frame offsets:
# 150
# 16115
# 32277
# 52350
# 68735
# 93730
# 118477
# 139310
# 161765
# 179412
# 200472
# 226787
#
# Disc length: 3381 seconds
#
#
# Revision: 3
# Processed by: cddbd v1.5.1PL2 Copyright (c) Steve Scherf et al.
# Submitted via: FreeRIP 2.942 
#
DISCID=a90d330c
DTITLE=Maria Creuza - Todo Sentimento
DYEAR=1991
DGENRE=MPB
TTITLE0=Casinha Branca
TTITLE1=Rio Antigo (Como Nos Velhos Tempos)
TTITLE2=Doa A Quem Doer
TTITLE3=Chuvas De Verão
TTITLE4=A Noite Do Meu Bem - Todo O Sentimento
TTITLE5=Vingança - Você Abusou
TTITLE6=Na Baixa Do Sapateiro
TTITLE7=Doce Safadeza
TTITLE8=Folha Morta
TTITLE9=Dia Branco - Dona De Minha Cabeça - Moça Bonita
TTITLE10=Dois Pra Lá Dois Pra Cá - O Mestre Sala Dos Mares
TTITLE11=Contigo En La Distancia - Besame Mucho - Amor
EXTD=
EXTT0=
EXTT1=
EXTT2=
EXTT3=
EXTT4=
EXTT5=
EXTT6=
EXTT7=
EXTT8=
EXTT9=
EXTT10=
EXTT11=
PLAYORDER=
